<?xml version="1.0" encoding="UTF-8" standalone="no"?>
<svg
   xmlns:dc="http://purl.org/dc/elements/1.1/"
   xmlns:cc="http://creativecommons.org/ns#"
   xmlns:rdf="http://www.w3.org/1999/02/22-rdf-syntax-ns#"
   xmlns:svg="http://www.w3.org/2000/svg"
   xmlns="http://www.w3.org/2000/svg"
   xmlns:sodipodi="http://sodipodi.sourceforge.net/DTD/sodipodi-0.dtd"
   xmlns:inkscape="http://www.inkscape.org/namespaces/inkscape"
   width="210mm"
   height="297mm"
   viewBox="0 0 210 297"
   version="1.1"
   id="svg6831"
   inkscape:version="1.0.1 (3bc2e813f5, 2020-09-07)"
   sodipodi:docname="eyeLogo.svg">
  <defs
     id="defs6825">
    <inkscape:path-effect
       effect="bspline"
       id="path-effect6873"
       is_visible="true"
       lpeversion="1"
       weight="33.333333"
       steps="2"
       helper_size="0"
       apply_no_weight="true"
       apply_with_weight="true"
       only_selected="false" />
    <inkscape:path-effect
       effect="bspline"
       id="path-effect6863"
       is_visible="true"
       lpeversion="1"
       weight="33.333333"
       steps="2"
       helper_size="0"
       apply_no_weight="true"
       apply_with_weight="true"
       only_selected="false" />
    <inkscape:path-effect
       effect="bspline"
       id="path-effect6851"
       is_visible="true"
       lpeversion="1"
       weight="33.333333"
       steps="2"
       helper_size="0"
       apply_no_weight="true"
       apply_with_weight="true"
       only_selected="false" />
    <inkscape:path-effect
       effect="bspline"
       id="path-effect6847"
       is_visible="true"
       lpeversion="1"
       weight="33.333333"
       steps="2"
       helper_size="0"
       apply_no_weight="true"
       apply_with_weight="true"
       only_selected="false" />
    <inkscape:path-effect
       effect="bspline"
       id="path-effect6839"
       is_visible="true"
       lpeversion="1"
       weight="33.333333"
       steps="2"
       helper_size="0"
       apply_no_weight="true"
       apply_with_weight="true"
       only_selected="false" />
    <inkscape:path-effect
       effect="bspline"
       id="path-effect6835"
       is_visible="true"
       lpeversion="1"
       weight="33.333333"
       steps="2"
       helper_size="0"
       apply_no_weight="true"
       apply_with_weight="true"
       only_selected="false" />
  </defs>
  <sodipodi:namedview
     id="base"
     pagecolor="#ffffff"
     bordercolor="#666666"
     borderopacity="1.0"
     inkscape:pageopacity="0.0"
     inkscape:pageshadow="2"
     inkscape:zoom="1.4142136"
     inkscape:cx="447.35507"
     inkscape:cy="372.37373"
     inkscape:document-units="mm"
     inkscape:current-layer="layer1"
     inkscape:document-rotation="0"
     showgrid="false"
     inkscape:snap-global="false"
     inkscape:window-width="1267"
     inkscape:window-height="1040"
     inkscape:window-x="104"
     inkscape:window-y="0"
     inkscape:window-maximized="0" />
  <metadata
     id="metadata6828">
    <rdf:RDF>
      <cc:Work
         rdf:about="">
        <dc:format>image/svg+xml</dc:format>
        <dc:type
           rdf:resource="http://purl.org/dc/dcmitype/StillImage" />
        <dc:title></dc:title>
      </cc:Work>
    </rdf:RDF>
  </metadata>
  <g
     inkscape:label="Layer 1"
     inkscape:groupmode="layer"
     id="layer1">
    <path
       style="fill:#ff00ff;stroke:#ff00ff;stroke-width:0.264583px;stroke-linecap:butt;stroke-linejoin:miter;stroke-opacity:1"
       d="m 44.758754,110.19891 c 0.220478,-0.30868 5.776726,-3.92465 14.067175,-7.09968 8.29045,-3.175028 19.314534,-5.909 31.265062,-6.482207 11.950529,-0.573207 24.826659,1.014261 35.013209,3.616097 10.18654,2.60183 17.68292,6.21773 22.71,9.30462 5.02709,3.08688 7.58467,5.64447 6.30583,5.5562 -1.27885,-0.0883 -6.39402,-2.82224 -10.93607,-5.07123 -4.54206,-2.24899 -8.51072,-4.01285 -12.52363,-5.11534 -4.0129,-1.10249 -8.06977,-1.54345 -11.33301,-1.67576 -3.26324,-0.13232 -5.73263,0.0441 -6.30584,0.35281 -0.57322,0.30875 0.74967,0.74971 2.1608,1.19068 1.41112,0.44097 2.91039,0.88194 4.80659,1.76394 1.89621,0.882 4.18922,2.20489 5.55612,3.70428 1.3669,1.49939 1.80787,3.17505 2.02831,4.98303 0.22045,1.80798 0.22045,3.74822 -0.61744,6.21761 -0.83789,2.46938 -2.51355,5.46794 -4.9829,7.31996 -2.46936,1.85203 -5.73249,2.55756 -9.08387,2.86627 -3.35139,0.3087 -6.7909,0.22051 -9.74543,-0.74954 -2.95453,-0.97005 -5.42392,-2.82209 -6.967447,-5.29153 -1.543526,-2.46943 -2.160876,-5.55618 -2.205025,-7.76114 -0.04415,-2.20496 0.485006,-3.52785 1.631571,-5.20362 1.146565,-1.67577 2.910418,-3.7042 3.483657,-3.92461 0.573239,-0.22041 -0.04411,1.36706 -0.485075,2.99871 -0.440965,1.63165 -0.705543,3.30731 -0.08802,4.89485 0.617525,1.58754 2.116796,3.08681 5.424096,3.13074 3.3073,0.0439 8.42248,-1.36716 10.49503,-3.13088 2.07254,-1.76373 1.10242,-3.88035 -0.70553,-6.04118 -1.80794,-2.16082 -4.45372,-4.36564 -5.86488,-5.60034 -1.41115,-1.23469 -1.58753,-1.49926 -3.35143,-1.58761 -1.7639,-0.0884 -5.115214,-1.6e-4 -9.039909,0.0439 -3.924694,0.0441 -8.422521,0.0441 -13.22921,0.70555 -4.806688,0.66145 -9.921865,1.98434 -13.934773,3.30726 -4.012908,1.32293 -6.923267,2.64582 -8.995822,2.16091 -2.072555,-0.4849 -3.307254,-2.77791 -6.482348,-2.42528 -3.175095,0.35262 -8.290271,3.35117 -8.069794,3.04249 z"
       id="path6833"
       inkscape:path-effect="#path-effect6835"
       inkscape:original-d="m 39.422916,113.50625 c 5.556515,-3.61571 11.112765,-7.23168 16.66875,-10.84792 11.02479,-2.733816 22.048874,-5.46779 33.072916,-8.202081 12.876908,1.587796 25.753038,3.175264 38.629168,4.7625 7.49694,3.616311 14.99332,7.232211 22.48958,10.847921 2.55796,2.55795 5.11554,5.11554 7.67292,7.67291 -5.11512,-2.73382 -10.23029,-5.46779 -15.34584,-8.20208 -3.96856,-1.76366 -7.93723,-3.52751 -11.90624,-5.29167 -4.05677,-0.44071 -8.11363,-0.88168 -12.17084,-1.32291 -2.46923,0.17665 -4.93862,0.35304 -7.40833,0.52916 1.32321,0.44125 2.6461,0.88221 3.96875,1.32292 1.4996,0.44124 2.99887,0.88221 4.49792,1.32292 2.29336,1.3232 4.58637,2.64609 6.87916,3.96875 0.44125,1.67599 0.88221,3.35165 1.32292,5.02708 2.6e-4,1.94058 2.6e-4,3.88082 0,5.82083 -1.67546,2.99894 -3.35113,5.99749 -5.02708,8.99584 -3.263,0.70583 -6.52613,1.41137 -9.78959,2.11666 -3.43939,-0.0879 -6.8789,-0.17612 -10.31875,-0.26458 -2.46923,-1.85186 -4.938623,-3.7039 -7.408331,-5.55625 -0.617109,-3.0866 -1.234459,-6.17335 -1.852084,-9.26042 0.529442,-1.32268 1.058598,-2.64557 1.5875,-3.96875 1.764189,-2.02825 3.528042,-4.05668 5.291665,-6.08541 -0.617107,1.58779 -1.234456,3.17526 -1.852081,4.7625 -0.264324,1.67599 -0.528902,3.35165 -0.79375,5.02708 1.4996,1.4996 2.998871,2.99887 4.497921,4.49792 5.11564,-1.41088 10.23082,-2.82196 15.34583,-4.23334 -0.9699,-2.11644 -1.94001,-4.23307 -2.91042,-6.35 -2.64562,-2.20464 -5.2914,-4.40946 -7.9375,-6.61458 -0.17613,-0.26433 -0.35251,-0.5289 -0.52916,-0.79375 -3.3512,0.0885 -6.702517,0.17665 -10.054171,0.26458 -4.497742,2.7e-4 -8.995569,2.7e-4 -13.49375,0 -5.115115,1.32321 -10.230292,2.6461 -15.345833,3.96875 -2.91021,1.32321 -5.820569,2.6461 -8.73125,3.96875 -1.234482,-2.29283 -2.469179,-4.58584 -3.704167,-6.87916 -5.115115,2.99893 -10.230291,5.99748 -15.345833,8.99583 z" />
    <path
       style="fill:#800080;stroke:#800080;stroke-width:0.264583px;stroke-linecap:butt;stroke-linejoin:miter;stroke-opacity:1"
       d="m 99.130846,104.29 c 3.968774,1.10251 8.643084,3.30737 12.170884,5.02718 3.5278,1.71981 5.909,2.95451 6.79076,4.71843 0.88176,1.76392 0.26441,4.05693 -1.23481,5.55613 -1.49922,1.4992 -3.88042,2.20473 -6.79082,2.38116 -2.9104,0.17643 -6.34991,-0.17634 -8.68715,-1.76373 -2.337238,-1.58738 -3.571933,-4.40955 -3.527869,-6.30591 0.04406,-1.89637 1.366955,-2.86649 1.984302,-4.01287 0.617347,-1.14638 0.529157,-2.46927 -0.441008,-2.29302 -0.97016,0.17626 -2.822205,1.85192 -4.145161,4.101 -1.322956,2.24908 -2.116691,5.07125 -1.851983,7.67308 0.264708,2.60183 1.587597,4.98303 3.395653,7.27608 1.808055,2.29305 4.101066,4.49787 7.187916,5.60017 3.08684,1.1023 6.96731,1.1023 10.1423,0.83769 3.17499,-0.26461 5.64439,-0.79377 8.06971,-1.76392 2.42531,-0.97016 4.80651,-2.38124 6.48215,-4.36554 1.67563,-1.98431 2.64575,-4.5419 3.30722,-6.65855 0.66146,-2.11665 1.01424,-3.79233 1.0143,-5.24749 6e-5,-1.45516 -0.35271,-2.68985 0.17655,-3.35147 0.52926,-0.66163 1.94034,-0.74982 5.46821,0.66141 3.52787,1.41123 9.1722,4.32158 11.95017,4.85079 2.77798,0.5292 2.68979,-1.32285 0.30864,-3.52778 -2.38115,-2.20494 -7.05536,-4.76253 -11.37692,-6.70285 -4.32157,-1.94033 -8.29024,-3.26322 -13.97887,-4.45388 -5.68863,-1.19067 -13.09681,-2.24898 -20.94621,-2.778173 -7.849407,-0.529188 -16.13952,-0.529188 -24.297619,0.352753 -8.1581,0.88194 -16.183634,2.6458 -22.085382,4.47584 -5.901748,1.83004 -9.679312,3.72616 -10.517122,4.25532 -0.837811,0.52916 1.264092,-0.30866 3.241202,-0.59523 1.97711,-0.28657 3.829157,-0.022 5.240278,0.46317 1.411122,0.48516 2.381241,1.1907 4.541963,0.92597 2.160722,-0.26473 5.512045,-1.49942 9.260369,-2.64596 3.748323,-1.14653 7.89338,-2.20484 11.06843,-2.82219 3.17505,-0.61735 5.379869,-0.79374 8.11394,-0.88192 2.734071,-0.0882 5.997201,-0.0882 9.965977,1.01431 z"
       id="path6837"
       inkscape:path-effect="#path-effect6839"
       inkscape:original-d="m 98.424999,103.1875 c 4.674571,2.20512 9.348871,4.40999 14.022921,6.61458 2.38156,1.23501 4.76276,2.46971 7.14375,3.70417 -0.61711,2.29336 -1.23446,4.58637 -1.85209,6.87917 -2.38103,0.70583 -4.76223,1.41137 -7.14375,2.11666 -3.43939,-0.35252 -6.8789,-0.70529 -10.31875,-1.05833 -1.23448,-2.82202 -2.469177,-5.64418 -3.704165,-8.46667 1.323208,-0.96989 2.646098,-1.94001 3.968755,-2.91041 -0.0879,-1.32268 -0.17613,-2.64557 -0.26459,-3.96875 -1.851854,1.67599 -3.7039,3.35165 -5.556248,5.02708 -0.793501,2.82254 -1.587235,5.64471 -2.38125,8.46667 1.323208,2.38156 2.646098,4.76276 3.96875,7.14375 2.293366,2.20516 4.586378,4.40998 6.879168,6.61458 3.8809,2.6e-4 7.76137,2.6e-4 11.64167,0 2.46975,-0.52891 4.93915,-1.05807 7.40833,-1.5875 2.38156,-1.41088 4.76276,-2.82196 7.14375,-4.23333 0.97042,-2.55743 1.94054,-5.11502 2.91041,-7.67292 0.35305,-1.67546 0.70583,-3.35113 1.05834,-5.02708 -0.35252,-1.23449 -0.70529,-2.46918 -1.05834,-3.70417 1.41141,-0.0879 2.82249,-0.17613 4.23334,-0.26458 5.64482,2.91073 11.28915,5.82109 16.93333,8.73125 -0.0879,-1.85186 -0.17612,-3.70391 -0.26458,-5.55625 -4.67414,-2.55743 -9.34835,-5.11502 -14.02292,-7.67292 -3.96856,-1.32268 -7.93723,-2.64557 -11.90625,-3.96875 -7.40822,-1.05809 -14.8164,-2.1164 -22.225,-3.175001 -8.290177,2.64e-4 -16.58029,2.64e-4 -24.870831,0 -8.02559,1.764191 -16.051125,3.528041 -24.077083,5.291671 -3.777448,1.89646 -7.55501,3.79259 -11.332911,5.68849 2.102249,-0.83758 4.20415,-1.6754 6.305828,-2.51349 1.852385,0.26485 3.704431,0.52943 5.55625,0.79375 0.970422,0.70583 1.940541,1.41137 2.910416,2.11666 3.351721,-1.23448 6.703042,-2.46918 10.054167,-3.70416 4.145486,-1.05809 8.290541,-2.11641 12.435416,-3.175 2.20517,-0.17613 4.409988,-0.35252 6.614584,-0.52917 3.263524,2.6e-4 6.526654,2.6e-4 9.789583,0 z" />
    <ellipse
       style="fill:#2b0000;stroke:#800080;stroke-width:0.264583"
       id="path6843"
       cx="109.80208"
       cy="116.54895"
       rx="12.435416"
       ry="12.567708" />
    <path
       style="fill:#ff00ff;stroke:#ff00ff;stroke-width:0.264583px;stroke-linecap:butt;stroke-linejoin:miter;stroke-opacity:1"
       d="m 87.709417,104.11369 c -0.573297,0.7495 -1.80802,1.89602 -2.866393,3.66001 -1.058374,1.76399 -1.9403,4.14519 -1.940234,7.49671 6.7e-5,3.35151 0.881994,7.67295 3.2634,11.33301 2.381405,3.66006 6.261882,6.65861 10.098375,8.37831 3.836495,1.7197 7.628785,2.16066 12.214925,2.20473 4.58614,0.0441 9.96589,-0.3087 13.62585,-1.63162 3.65996,-1.32292 5.60019,-3.61593 6.9672,-5.86485 1.367,-2.24891 2.16074,-4.45374 2.73401,-6.61449 0.57328,-2.16075 0.92605,-4.27737 0.8379,-5.15944 -0.0882,-0.88207 -0.61731,-0.5293 -0.92602,0.3969 -0.30872,0.9262 -0.39692,2.42548 -1.1466,4.1893 -0.74968,1.76381 -2.16076,3.79224 -4.14509,5.4679 -1.98433,1.67565 -4.54191,2.99853 -7.67278,3.7923 -3.13087,0.79377 -6.83497,1.05835 -9.96586,0.882 -3.13089,-0.17635 -5.68848,-0.7937 -7.49653,-1.85193 -1.808045,-1.05823 -2.866357,-2.5575 -3.924712,-4.14502 -1.058354,-1.58751 -2.116665,-3.26318 -2.645929,-5.2476 -0.529264,-1.98442 -0.529264,-4.27742 0.26448,-6.74699 0.793745,-2.46956 2.381213,-5.11534 3.351492,-6.21766 0.97028,-1.10232 1.323051,-0.66136 1.852269,-0.26455 0.52921,0.39681 1.23475,0.74958 1.67556,0.26454 0.4408,-0.48505 0.61718,-1.80794 1.94024,-2.73412 1.32306,-0.92618 3.79245,-1.45534 1.36707,-1.89629 -2.42539,-0.44094 -9.745375,-0.79372 -13.361446,-0.79357 -3.616072,1.6e-4 -3.52788,0.35293 -4.101177,1.10242 z"
       id="path6845"
       inkscape:path-effect="#path-effect6847"
       inkscape:original-d="m 88.370832,103.71667 c -1.234458,1.14679 -2.469179,2.29332 -3.704166,3.43958 -0.881698,2.38156 -1.763626,4.76276 -2.645834,7.14375 0.882227,4.32188 1.764155,8.64332 2.645834,12.96458 3.880897,2.99894 7.761374,5.99749 11.641666,8.99583 3.792698,0.44125 7.584988,0.88221 11.377088,1.32292 5.38023,-0.35252 10.75998,-0.70529 16.13958,-1.05833 1.94058,-2.29284 3.88082,-4.58585 5.82083,-6.87917 0.79403,-2.20464 1.58777,-4.40946 2.38125,-6.61458 0.35305,-2.11645 0.70582,-4.23307 1.05833,-6.35 -0.52891,0.35305 -1.05806,0.70582 -1.58749,1.05833 -0.0879,1.4996 -0.17613,2.99888 -0.26459,4.49792 -1.41087,2.02878 -2.82196,4.05721 -4.23333,6.08542 -2.55743,1.3232 -5.11501,2.64609 -7.67292,3.96874 -3.70397,0.26486 -7.40807,0.52944 -11.1125,0.79375 -2.55742,-0.6171 -5.11501,-1.23445 -7.67291,-1.85208 -1.058095,-1.49907 -2.116407,-2.99834 -3.175005,-4.49791 -1.058089,-1.67547 -2.116402,-3.35113 -3.175,-5.02709 2.65e-4,-2.29284 2.65e-4,-4.58584 0,-6.87916 1.587797,-2.64563 3.175265,-5.29141 4.7625,-7.9375 0.35305,0.44124 0.705821,0.8822 1.058335,1.32291 0.70583,0.35305 1.41137,0.70582 2.11667,1.05834 0.17665,-1.32268 0.35304,-2.64557 0.52916,-3.96875 2.46976,-0.52892 4.93916,-1.05807 7.40834,-1.5875 -7.32003,-0.35252 -14.640017,-0.7053 -21.960421,-1.05834 0.08846,0.35305 0.176654,0.70582 0.264583,1.05834 z" />
    <path
       style="fill:#800080;stroke:#800080;stroke-width:0.264583px;stroke-linecap:butt;stroke-linejoin:miter;stroke-opacity:1"
       d="m 87.929855,103.67258 c -0.440977,0.48507 -1.322922,1.45521 -2.116698,2.60179 -0.793776,1.14658 -1.499317,2.46947 -2.028479,4.40984 -0.529161,1.94037 -0.881933,4.49796 -0.837771,6.57059 0.04416,2.07263 0.485125,3.6601 1.278919,5.6445 0.793793,1.98439 1.940301,4.3656 4.23347,6.61452 2.293168,2.24891 5.73268,4.36553 8.643114,5.60019 2.91043,1.23465 5.29163,1.58742 8.11387,1.71968 2.82223,0.13227 6.08536,0.0441 9.21627,-0.26462 3.13092,-0.3087 6.12947,-0.83786 8.37834,-1.76391 2.24888,-0.92604 3.74815,-2.24893 5.07105,-3.96869 1.32289,-1.71975 2.4694,-3.83638 3.30726,-6.48218 0.83786,-2.64581 1.36701,-5.82074 1.49934,-8.15787 0.13233,-2.33712 -0.13224,-3.83639 -0.0439,-4.45381 0.0883,-0.61741 0.52929,-0.35284 0.74017,0.4484 0.21088,0.80125 0.19198,2.13902 0.13964,3.42765 -0.0523,1.28864 -0.13808,2.52808 -0.22773,3.54148 -0.0896,1.0134 -0.18319,1.80071 -0.3664,2.71665 -0.1832,0.91594 -0.45603,1.9605 -0.72887,2.93492 -0.27284,0.97443 -0.54567,1.87867 -0.85359,2.64648 -0.30792,0.76781 -0.65092,1.39923 -0.99002,2.00337 -0.3391,0.60414 -0.67429,1.18098 -1.09524,1.82019 -0.42095,0.63921 -0.92764,1.34078 -1.44211,1.9254 -0.51447,0.58463 -1.03675,1.05234 -1.66036,1.51226 -0.6236,0.45991 -1.34856,0.91203 -2.10078,1.27841 -0.75222,0.36639 -1.53174,0.64701 -2.15537,0.85749 -0.62362,0.21048 -1.09133,0.35079 -1.60192,0.48332 -0.51059,0.13253 -1.06405,0.25725 -2.39317,0.49501 -1.32912,0.23777 -3.43383,0.58855 -5.50349,0.78735 -2.06967,0.1988 -4.10422,0.24557 -5.63211,0.23779 -1.52789,-0.008 -2.54907,-0.0701 -4.16271,-0.33128 -1.61365,-0.26112 -3.819693,-0.72104 -5.749056,-1.34853 -1.929362,-0.62749 -3.581944,-1.4226 -5.242388,-2.49833 -1.660444,-1.07574 -3.328615,-2.4321 -4.879955,-4.23282 -1.55134,-1.80071 -2.985654,-4.04573 -3.940665,-6.63772 -0.955011,-2.59199 -1.430517,-5.53079 -1.531899,-7.68626 -0.101382,-2.15548 0.171451,-3.52744 0.635275,-4.8722 0.463825,-1.34477 1.118622,-2.66216 1.750074,-3.64443 0.631452,-0.98227 1.239478,-1.62927 1.882606,-2.29968 0.643128,-0.67041 1.321309,-1.36418 1.750101,-1.76177 0.428792,-0.39759 0.608082,-0.49893 1.114872,-0.56516 0.50679,-0.0662 1.340877,-0.0974 1.352542,-0.0467 0.01167,0.0507 -0.799036,0.18319 -1.166304,0.2391 -0.367269,0.0559 -0.291039,0.0352 -0.25301,0.0249 0.03803,-0.0103 0.03807,-0.0103 -0.402908,0.47474 z"
       id="path6849"
       inkscape:path-effect="#path-effect6851"
       inkscape:original-d="m 88.370832,103.1875 c -0.881679,0.9704 -1.763625,1.94054 -2.645833,2.91042 -0.705305,1.3232 -1.410846,2.64609 -2.116667,3.96875 -0.35252,2.55795 -0.705292,5.11554 -1.058333,7.67291 0.441246,1.5878 0.882208,3.17527 1.322917,4.7625 1.146815,2.38156 2.293321,4.76277 3.439583,7.14375 3.439917,2.11698 6.879431,4.2336 10.31875,6.35 2.381561,0.35305 4.762761,0.70582 7.143751,1.05833 3.26352,-0.0879 6.52665,-0.17612 9.78958,-0.26458 2.99894,-0.52891 5.99749,-1.05807 8.99584,-1.5875 1.4996,-1.32268 2.99887,-2.64557 4.49791,-3.96875 1.14682,-2.11644 2.29332,-4.23307 3.43959,-6.35 0.52944,-3.1748 1.05859,-6.34973 1.58749,-9.525 -0.26432,-1.49907 -0.5289,-2.99834 -0.79375,-4.49791 0.44125,0.26485 0.88221,0.52943 1.32292,0.79375 -0.0186,1.33809 -0.0375,2.67586 -0.0567,4.0134 -0.0855,1.23975 -0.17123,2.47919 -0.25725,3.71839 -0.0933,0.78761 -0.18682,1.57492 -0.28063,2.36199 -0.27258,1.04486 -0.54541,2.08942 -0.81851,3.13374 -0.27258,0.90454 -0.54541,1.80878 -0.81851,2.71278 -0.34274,0.6317 -0.68573,1.26312 -1.02899,1.89427 -0.33494,0.57714 -0.67014,1.15398 -1.0056,1.73057 -0.50645,0.70186 -1.01314,1.40343 -1.5201,2.10475 -0.52203,0.468 -1.04431,0.93571 -1.56687,1.40317 -0.72471,0.4524 -1.44967,0.90452 -2.1749,1.35639 -0.77929,0.2809 -1.55881,0.56153 -2.33861,0.8419 -0.46747,0.14058 -0.93518,0.2809 -1.40316,0.42095 -0.55322,0.12499 -1.10668,0.24972 -1.66042,0.37418 -2.10452,0.35106 -4.20923,0.70184 -6.31424,1.05237 -2.03436,0.047 -4.06891,0.0938 -6.10377,0.14032 -1.02095,-0.0621 -2.04212,-0.12447 -3.06357,-0.18709 -2.20587,-0.45967 -4.411915,-0.91959 -6.618265,-1.37978 -1.652386,-0.79488 -3.304968,-1.58999 -4.957849,-2.38538 -1.667976,-1.35616 -3.33615,-2.71252 -5.004623,-4.06918 -1.434111,-2.24485 -2.868427,-4.48986 -4.303041,-6.73519 -0.47526,-2.93865 -0.950769,-5.87744 -1.426548,-8.81656 0.273105,-1.37174 0.545938,-2.7437 0.818512,-4.11595 0.655087,-1.31718 1.309883,-2.63457 1.964431,-3.95225 0.608314,-0.64676 1.21634,-1.29376 1.824114,-1.94104 0.678474,-0.69354 1.356656,-1.38731 2.03459,-2.08136 0.17956,-0.10108 0.358849,-0.20242 0.53788,-0.30402 0.834384,-0.0309 1.66847,-0.0621 2.50231,-0.0935 -0.810469,0.13279 -1.621171,0.26531 -2.432153,0.39757 0.07649,-0.0204 0.15272,-0.0411 0.228684,-0.0621 z" />
    <path
       style="fill:#800080;stroke:#800080;stroke-width:0.264583px;stroke-linecap:butt;stroke-linejoin:miter;stroke-opacity:1"
       d="m 96.537752,111.51654 c -6.361014,-4.16272 -6.150541,-4.13934 -6.361014,-4.16272 -0.210476,-0.0234 -0.350793,0.26894 -0.350793,0.26894 l 0.350793,-0.12863 6.267471,4.18611 z"
       id="path6853" />
    <path
       style="fill:#800080;stroke:#800080;stroke-width:0.264583px;stroke-linecap:butt;stroke-linejoin:miter;stroke-opacity:1"
       d="m 95.847862,113.02494 -5.12155,-3.0168 -0.18709,0.23386 5.355413,3.07527 z"
       id="path6855" />
    <path
       style="fill:#800080;stroke:#800080;stroke-width:0.264583px;stroke-linecap:butt;stroke-linejoin:miter;stroke-opacity:1"
       d="m 95.117707,116.28437 -7.540625,-0.33073 -0.03307,0.39688 7.408334,0.33073 z"
       id="path6857" />
    <path
       style="fill:#800080;stroke:#800080;stroke-width:0.264583px;stroke-linecap:butt;stroke-linejoin:miter;stroke-opacity:1"
       d="m 95.15078,120.22005 -8.499739,1.85208 -0.132292,0.56224 0.595312,-0.42994 8.665104,-1.78594 z"
       id="path6859" />
    <path
       style="fill:#800080;stroke:#800080;stroke-width:0.264583px;stroke-linecap:butt;stroke-linejoin:miter;stroke-opacity:1"
       d="m 92.3783,121.34453 c 0.237155,0 0.711199,0 1.086055,0.0607 0.374856,0.0607 0.65046,0.18197 0.970132,0.44663 0.319673,0.26466 0.683467,0.67255 0.666787,1.14097 -0.01668,0.46842 -0.413548,0.99758 -1.025334,1.46607 -0.611786,0.46848 -1.438592,0.87638 -1.499193,0.96457 -0.0606,0.0882 0.64494,-0.14331 1.218197,-0.34727 0.573257,-0.20395 1.01422,-0.38033 1.576524,-0.088 0.562303,0.29232 1.245796,1.05298 1.796998,1.72548 0.551203,0.6725 0.970114,1.25678 1.471773,1.72526 0.501659,0.46848 1.085939,0.82125 0.986545,1.48264 -0.0994,0.66139 -0.882105,1.63151 -1.3341,2.18823 -0.451995,0.55673 -0.573261,0.70004 -0.507077,0.68347 0.06618,-0.0166 0.319742,-0.19295 0.639407,-0.54018 0.319665,-0.34723 0.705507,-0.86536 0.975616,-1.20713 0.270109,-0.34178 0.424446,-0.50714 0.61192,-0.64497 0.18747,-0.13784 0.40795,-0.24808 0.86557,-0.10465 0.45762,0.14344 1.15214,0.5403 1.53785,1.04748 0.38572,0.50718 0.46289,1.12454 0.4794,1.76944 0.0165,0.64491 -0.0276,1.31737 -0.0386,1.68122 -0.0109,0.36384 0.0111,0.41898 0.0606,0.29212 0.0495,-0.12685 0.12668,-0.43554 0.1763,-0.73317 0.0496,-0.29763 0.0717,-0.58426 0.0827,-0.91498 0.011,-0.33072 0.011,-0.70554 0.022,-0.97015 0.011,-0.2646 0.033,-0.41895 0.10476,-0.52933 0.0717,-0.11037 0.19297,-0.17651 0.34739,-0.21509 0.15443,-0.0386 0.34183,-0.0496 0.52926,-0.0551 0.18742,-0.006 0.37483,-0.006 1.01427,0.11579 0.63945,0.12131 1.73082,0.36383 2.34254,0.96478 0.61172,0.60095 0.74401,1.56005 0.87642,2.04499 0.13242,0.48494 0.26471,0.49597 0.31973,0.45754 0.055,-0.0384 0.033,-0.12663 -0.0276,-0.32508 -0.0606,-0.19845 -0.15983,-0.50711 -0.20949,-0.78825 -0.0497,-0.28115 -0.0497,-0.53471 0.022,-0.77734 0.0716,-0.24263 0.21495,-0.47414 0.49623,-0.58993 0.28128,-0.11579 0.70019,-0.11579 2.06723,-0.14887 1.36703,-0.0331 3.68208,-0.0992 5.479,-0.38037 1.79692,-0.28115 3.07571,-0.77723 1.17955,-1.29534 -1.89616,-0.5181 -6.96723,-1.05828 -10.57218,-1.9567 -3.60496,-0.89841 -5.74364,-2.15516 -7.441458,-3.83633 -1.697818,-1.68116 -2.954565,-3.78676 -3.489351,-5.45149 -0.534785,-1.66473 -0.347375,-2.88841 0.03296,-4.15626 0.380333,-1.26785 0.953587,-2.57972 1.433149,-3.74278 0.479561,-1.16307 0.865402,-2.17728 0.777234,-2.41437 -0.08817,-0.2371 -0.650398,0.30308 -1.278676,0.61175 -0.628277,0.30868 -1.322799,0.38584 -1.637058,0.52933 -0.314259,0.14349 -0.248114,0.35295 -0.137774,0.51828 0.110341,0.16532 0.26468,0.28658 0.341704,0.40787 0.07702,0.12128 0.07702,0.24255 0.03843,0.4244 -0.0386,0.18185 -0.115733,0.42438 -0.363619,0.55658 -0.247886,0.1322 -0.666804,0.15423 -0.75499,0.29217 -0.08819,0.13795 0.154341,0.3915 0.319621,0.67815 0.16528,0.28666 0.253474,0.60636 -0.0056,1.00858 -0.259105,0.40223 -0.86543,0.88729 -1.306319,1.15738 -0.440889,0.27008 -0.716489,0.32521 -0.931434,0.35279 -0.214945,0.0276 -0.369282,0.0276 -0.352741,0.1159 0.01654,0.0883 0.203954,0.26471 0.501637,0.43001 0.297683,0.16529 0.705576,0.31963 0.942492,0.49612 0.236915,0.17649 0.303058,0.37492 0.330565,0.72768 0.02751,0.35275 0.01648,0.85986 -0.08276,1.3173 -0.09924,0.45744 -0.286653,0.86533 -0.545638,1.14086 -0.258984,0.27552 -0.589705,0.41884 -1.030656,0.56216 -0.44095,0.14332 -0.992154,0.28663 -1.074775,0.39141 -0.08262,0.10478 0.303224,0.17092 0.495998,0.20397 0.192775,0.033 0.192772,0.0331 0.429927,0.0331 z"
       id="path6861"
       inkscape:path-effect="#path-effect6863"
       inkscape:original-d="m 92.141145,121.34453 c 0.47431,2.6e-4 0.948354,2.6e-4 1.422135,0 0.275878,0.12153 0.551479,0.2428 0.826823,0.3638 0.364075,0.40817 0.727869,0.81606 1.091406,1.2237 -0.396618,0.52944 -0.793485,1.0586 -1.190625,1.5875 -0.826574,0.40817 -1.653381,0.81606 -2.480468,1.2237 0.705834,-0.23125 1.411374,-0.46276 2.116666,-0.69453 0.441246,-0.17613 0.882208,-0.35252 1.322917,-0.52917 0.683786,0.76096 1.367279,1.52162 2.050521,2.28203 0.419197,0.58457 0.838112,1.16884 1.25677,1.75287 0.584566,0.35304 1.168842,0.70582 1.75286,1.05833 -0.782471,0.97042 -1.565183,1.94054 -2.348172,2.91042 -0.121005,0.14358 -0.242271,0.28689 -0.363802,0.42994 0.253828,-0.17612 0.507383,-0.35251 0.760677,-0.52916 0.386122,-0.51789 0.771967,-1.03602 1.157552,-1.55443 0.154609,-0.1651 0.308946,-0.33046 0.463021,-0.49609 0.220754,-0.10998 0.441234,-0.22022 0.661454,-0.33073 0.69481,0.39714 1.38933,0.79401 2.0836,1.19062 0.0774,0.61764 0.1546,1.23499 0.23151,1.85208 -0.0438,0.67277 -0.0879,1.34523 -0.13229,2.01745 0.0223,0.0554 0.0444,0.11051 0.0661,0.16537 0.0774,-0.30842 0.15461,-0.6171 0.23151,-0.92604 0.0223,-0.28638 0.0444,-0.573 0.0661,-0.8599 2.6e-4,-0.37457 2.6e-4,-0.74939 0,-1.12448 0.0223,-0.15408 0.0444,-0.30842 0.0661,-0.46302 0.12154,-0.0659 0.2428,-0.13203 0.36381,-0.19844 0.18768,-0.0108 0.37509,-0.0218 0.56224,-0.0331 0.18768,2.6e-4 0.37509,2.6e-4 0.56224,0 1.09169,0.24281 2.18307,0.48533 3.27421,0.7276 0.13256,0.9594 0.26485,1.9185 0.39688,2.87735 0.13256,0.0113 0.26485,0.0223 0.39687,0.0331 -0.0218,-0.0879 -0.0438,-0.17612 -0.0661,-0.26458 -0.099,-0.30843 -0.19817,-0.6171 -0.29766,-0.92604 2.7e-4,-0.2533 2.7e-4,-0.50686 0,-0.76068 0.14359,-0.23125 0.2869,-0.46276 0.42995,-0.69453 0.4192,2.6e-4 0.83811,2.6e-4 1.25677,0 2.31542,-0.0659 4.63047,-0.13203 6.94531,-0.19844 1.27911,-0.49584 2.55791,-0.99192 3.83646,-1.48828 -5.07102,-0.53994 -10.14209,-1.08012 -15.21354,-1.62057 -2.13849,-1.25653 -4.27717,-2.51328 -6.416145,-3.77032 -1.25653,-2.10542 -2.513277,-4.21102 -3.770313,-6.31692 0.187682,-1.22346 0.375092,-2.44714 0.56224,-3.6711 0.57354,-1.31165 1.146791,-2.62352 1.719791,-3.93567 0.386123,-1.014 0.771967,-2.02821 1.157552,-3.04271 -0.561985,0.54046 -1.124214,1.08064 -1.686718,1.62057 -0.69428,0.0774 -1.388798,0.1546 -2.083594,0.23151 0.06641,0.20973 0.132556,0.41919 0.198437,0.62839 0.15461,0.12153 0.308946,0.2428 0.463021,0.3638 2.65e-4,0.12153 2.65e-4,0.2428 0,0.3638 -0.07688,0.2428 -0.154015,0.48533 -0.231419,0.72761 -0.418667,0.0223 -0.837582,0.0444 -1.256771,0.0661 0.242805,0.25383 0.485334,0.50738 0.727605,0.76068 0.08846,0.31997 0.176653,0.63967 0.264583,0.95911 -0.606084,0.48535 -1.212409,0.97041 -1.819011,1.45521 -0.275348,0.0554 -0.55095,0.11051 -0.826822,0.16537 -0.154079,2.6e-4 -0.308416,2.6e-4 -0.463021,0 0.187681,0.17665 0.375091,0.35304 0.562239,0.52916 0.408172,0.15461 0.816064,0.30895 1.223698,0.46302 0.06641,0.19871 0.132556,0.39714 0.198438,0.59532 -0.01076,0.50739 -0.02178,1.0145 -0.03307,1.52135 -0.187153,0.40817 -0.374562,0.81606 -0.56224,1.2237 -0.330471,0.14358 -0.661194,0.28689 -0.992187,0.42995 -0.550962,0.14358 -1.102166,0.28689 -1.653646,0.42994 0.386123,0.0664 0.771965,0.13256 1.157551,0.19844 z" />
    <ellipse
       style="fill:#ffd5d5;stroke:#800080;stroke-width:0.264583"
       id="path6865"
       cx="102.9923"
       cy="114.40472"
       rx="2.7127855"
       ry="3.0869629" />
    <circle
       style="fill:#ffd5d5;stroke:#800080;stroke-width:0.264583"
       id="path6867"
       cx="94.292686"
       cy="128.15575"
       r="4.8643055" />
    <path
       style="fill:#ffd5d5;stroke:#ffd5d5;stroke-width:0.264583px;stroke-linecap:butt;stroke-linejoin:miter;stroke-opacity:1"
       d="m 124.97536,114.62313 c 0.7485,-0.24959 2.24521,-0.18722 2.99343,0.37418 0.74821,0.56141 0.74821,1.62156 0.7794,2.9312 0.0312,1.30964 0.0935,2.86868 -0.0312,4.58365 -0.12476,1.71497 -0.43656,3.58582 -1.02902,5.20719 -0.59246,1.62138 -1.46552,2.99334 -2.58801,4.08464 -1.12249,1.0913 -2.49444,1.902 -3.274,1.6527 -0.77956,-0.24929 -0.96664,-1.55889 -0.43656,-2.83749 0.53008,-1.27859 1.77731,-2.52582 2.49447,-4.58371 0.71717,-2.05788 0.90425,-4.92652 0.87313,-6.73501 -0.0311,-1.8085 -0.28057,-2.55684 -0.40535,-3.21168 -0.12478,-0.65484 -0.12478,-1.21609 0.62371,-1.46567 z"
       id="path6871"
       inkscape:path-effect="#path-effect6873"
       inkscape:original-d="m 124.22687,114.31117 c 1.49698,0.0626 2.99369,0.125 4.49013,0.18709 2.7e-4,1.06046 2.7e-4,2.12061 0,3.18051 0.0626,1.55937 0.12499,3.11841 0.18709,4.67722 -0.31155,1.87119 -0.62336,3.74204 -0.93544,5.61266 -0.87284,1.37227 -1.7459,2.74423 -2.61924,4.11595 -1.37175,0.811 -2.74371,1.6217 -4.11596,2.43215 -0.18682,-1.30938 -0.37391,-2.61898 -0.56126,-3.92886 1.24755,-1.24702 2.49478,-2.49425 3.74177,-3.74177 0.18736,-2.86849 0.37444,-5.73713 0.56127,-8.60608 -0.24919,-0.74811 -0.49864,-1.49645 -0.74836,-2.24507 2.7e-4,-0.56101 2.7e-4,-1.12226 0,-1.6838 z" />
  </g>
</svg>
